# xmcd CD database file
#
# Track frame offsets:
#	150
#	23038
#	46998
#	66188
#
# Disc length: 1186 seconds
#
# Revision: 0
# Processed by: cddbd v1.5.1PL0 Copyright (c) Steve Scherf et al.
# Submitted via: freeDB plugin v1.0
#
DISCID=2c04a004
DTITLE=大山百合香 - 海の青 空の青
DYEAR=1900
DGENRE=Rock
TTITLE0=海の青 空の青
TTITLE1=月あかり
TTITLE2=あなたに
TTITLE3=海の青 空の青 INSTRUMENTAL VERSION
EXTD=
EXTT0=
EXTT1=
EXTT2=
EXTT3=
PLAYORDER=
